<svg id="visual" viewBox="0 0 960 540" width="960" height="540" xmlns="http://www.w3.org/2000/svg"
    xmlns:xlink="http://www.w3.org/1999/xlink" version="1.1">
    <path
        d="M0 341L16 347.3C32 353.7 64 366.3 96 388.2C128 410 160 441 192 456.8C224 472.7 256 473.3 288 448.7C320 424 352 374 384 362.8C416 351.7 448 379.3 480 384.7C512 390 544 373 576 362.8C608 352.7 640 349.3 672 361.3C704 373.3 736 400.7 768 398.3C800 396 832 364 864 354.3C896 344.7 928 357.3 944 363.7L960 370L960 541L944 541C928 541 896 541 864 541C832 541 800 541 768 541C736 541 704 541 672 541C640 541 608 541 576 541C544 541 512 541 480 541C448 541 416 541 384 541C352 541 320 541 288 541C256 541 224 541 192 541C160 541 128 541 96 541C64 541 32 541 16 541L0 541Z"
        fill="rgba(161,195,246,0.455)" stroke-linecap="round" stroke-linejoin="miter">

    </path>
</svg>