<svg id="visual" viewBox="0 0 960 540" width="960" height="540" xmlns="http://www.w3.org/2000/svg" xmlns:xlink="http://www.w3.org/1999/xlink" version="1.1"><path d="M0 442L16 443C32 444 64 446 96 436.2C128 426.3 160 404.7 192 387.5C224 370.3 256 357.7 288 361.3C320 365 352 385 384 386.3C416 387.7 448 370.3 480 374.8C512 379.3 544 405.7 576 422.2C608 438.7 640 445.3 672 437.7C704 430 736 408 768 397.7C800 387.3 832 388.7 864 392.7C896 396.7 928 403.3 944 406.7L960 410L960 541L944 541C928 541 896 541 864 541C832 541 800 541 768 541C736 541 704 541 672 541C640 541 608 541 576 541C544 541 512 541 480 541C448 541 416 541 384 541C352 541 320 541 288 541C256 541 224 541 192 541C160 541 128 541 96 541C64 541 32 541 16 541L0 541Z" fill="#001f4d" stroke-linecap="round" stroke-linejoin="miter"></path></svg>
